<?xml version="1.0" encoding="UTF-8"?>
<svg version="1.1" xmlns="http://www.w3.org/2000/svg" width="520" height="542">
<path d="M0 0 C0.92941406 0.32871094 1.85882813 0.65742188 2.81640625 0.99609375 C5.55338283 1.97440109 8.27802507 2.9807761 11 4 C12.16208984 4.42539062 12.16208984 4.42539062 13.34765625 4.859375 C25.81584319 9.60519574 37.61612262 16.09557733 49 23 C49.83015625 23.48726562 50.6603125 23.97453125 51.515625 24.4765625 C53.38058499 25.59162599 55.19739873 26.78671068 57 28 C57 28.66 57 29.32 57 30 C57.53109375 30.07347656 58.0621875 30.14695313 58.609375 30.22265625 C61.95471004 31.31043676 64.48905947 33.32716388 67.25 35.4375 C67.80429687 35.84548828 68.35859375 36.25347656 68.9296875 36.67382812 C70.32810909 37.72953309 71.66950652 38.85987587 73 40 C73 40.66 73 41.32 73 42 C73.8353125 42.0928125 73.8353125 42.0928125 74.6875 42.1875 C77.95969275 43.33718934 79.5815803 45.52598444 82 48 C83.92968347 49.78063206 85.86580212 51.55082795 87.8125 53.3125 C108.08860324 71.83718934 108.08860324 71.83718934 112.0703125 80.265625 C112.93785659 82.36080449 112.93785659 82.36080449 116 83 C117.578125 85.15234375 117.578125 85.15234375 119.25 87.9375 C121.56707898 91.71005507 123.93041497 95.39447867 126.5 99 C127.6675333 100.66605969 128.83421458 102.3327168 130 104 C130.53109375 104.74636719 131.0621875 105.49273437 131.609375 106.26171875 C148.32491 130.97683121 159.18425397 161.92675639 165 191 C165.2794043 192.37164307 165.2794043 192.37164307 165.56445312 193.77099609 C173.20086836 232.99498995 171.37970386 275.95304347 159 314 C158.69578125 315.00289063 158.3915625 316.00578125 158.078125 317.0390625 C151.27213223 338.71077633 141.55708387 360.24257482 128.890625 379.1484375 C127.39143285 381.40961575 126.17605104 383.57040618 125 386 C130.2176997 392.20944419 135.84421058 397.96684468 141.59894943 403.67411423 C143.18166539 405.2438938 144.76108416 406.81692782 146.3397522 408.39077759 C149.68200329 411.72170278 153.02821947 415.04862667 156.375 418.375 C160.27680862 422.25317983 164.17696036 426.13299727 168.07295609 430.01701736 C169.62923841 431.56681837 171.18849812 433.11358086 172.74789429 434.6602478 C173.69584558 435.60456892 174.64365807 436.54902939 175.59130859 437.49365234 C176.42068939 438.31779633 177.25007019 439.14194031 178.10458374 439.99105835 C180.51713591 442.54810961 180.94496233 443.6068738 181.4375 447.125 C180.52285721 455.22612188 173.197981 461.05370605 167.5625 466.5 C166.29039884 467.73694586 165.02086199 468.9765344 163.75390625 470.21875 C163.20033447 470.75435547 162.6467627 471.28996094 162.07641602 471.84179688 C160.25979715 473.72996981 158.54907993 475.66044498 156.83740234 477.64282227 C150.17912699 485.29656548 142.9522816 492.42875291 135.8215332 499.63842773 C133.97678084 501.50995112 132.13923101 503.38860049 130.30883789 505.27416992 C127.65097745 508.01097907 124.9709731 510.72424897 122.28515625 513.43359375 C121.47345474 514.2782872 120.66175323 515.12298065 119.82545471 515.99327087 C113.39717853 522.39923605 113.39717853 522.39923605 108.85717773 523.22290039 C101.43675023 522.79408526 97.04784201 519.64478626 92.03637695 514.41113281 C91.48582642 513.85313492 90.93527588 513.29513702 90.36804199 512.7202301 C89.18286374 511.51658563 88.0023046 510.30837854 86.82598305 509.09607697 C84.96492638 507.17906797 83.09101173 505.27551048 81.21318054 503.37493896 C76.55716857 498.65763859 71.92152986 493.92051234 67.28967285 489.17950439 C63.36478908 485.16268491 59.4303624 481.15575218 55.48131371 477.16268158 C53.63217497 475.28481228 51.79823331 473.39290083 49.96418762 471.50030518 C48.83537794 470.35653636 47.70583507 469.21349051 46.57543945 468.07128906 C46.06782578 467.53941483 45.5602121 467.00754059 45.03721619 466.45954895 C43.47667381 464.84410534 43.47667381 464.84410534 41 463 C38.83732332 462.93625452 38.83732332 462.93625452 37 464 C35.87851562 464.54011719 34.75703125 465.08023437 33.6015625 465.63671875 C32.27493944 466.31817099 30.94948177 467.0018952 29.625 467.6875 C-20.2706455 492.92836246 -79.12249604 500.95569592 -134 490 C-134.93070313 489.81808105 -135.86140625 489.63616211 -136.8203125 489.44873047 C-170.68126552 482.62408954 -202.11647097 468.5339445 -230.875 449.625 C-231.67921387 449.10067383 -232.48342773 448.57634766 -233.31201172 448.03613281 C-234.42213623 447.29508301 -234.42213623 447.29508301 -235.5546875 446.5390625 C-236.21968262 446.09771973 -236.88467773 445.65637695 -237.56982422 445.20166016 C-238.04178223 444.8051123 -238.51374023 444.40856445 -239 444 C-239 443.34 -239 442.68 -239 442 C-240.32 441.67 -241.64 441.34 -243 441 C-243 440.34 -243 439.68 -243 439 C-243.53753906 438.76925781 -244.07507813 438.53851563 -244.62890625 438.30078125 C-247.70495942 436.6132595 -250.28147567 434.45542216 -252.9375 432.1875 C-253.78586426 431.46433594 -253.78586426 431.46433594 -254.65136719 430.7265625 C-264.74984892 421.99575795 -273.77732869 412.51870518 -282 402 C-282.88007691 400.90899833 -283.76165767 399.8192085 -284.64453125 398.73046875 C-293.92597935 387.21317647 -302.26596613 375.19559238 -309 362 C-309.46664063 361.10539062 -309.93328125 360.21078125 -310.4140625 359.2890625 C-313.52609572 353.21477307 -316.39227752 347.03728984 -319.1875 340.8125 C-319.52056152 340.07636475 -319.85362305 339.34022949 -320.19677734 338.58178711 C-322.46300956 333.47792224 -324.30702456 328.31879965 -326 323 C-326.61681641 321.14568359 -326.61681641 321.14568359 -327.24609375 319.25390625 C-335.50682393 293.65918488 -338.58748215 268.10659207 -338.4375 241.25 C-338.43479095 240.10935089 -338.43208191 238.96870178 -338.42929077 237.79348755 C-338.3695875 221.21587968 -337.83760517 205.19866703 -334 189 C-333.81808105 188.18128418 -333.63616211 187.36256836 -333.44873047 186.51904297 C-331.23305792 176.66830932 -328.14174098 167.08894747 -325 157.5 C-324.67999023 156.5207959 -324.35998047 155.5415918 -324.03027344 154.53271484 C-321.76633141 147.80371259 -319.02073902 141.42009929 -316 135 C-315.24720988 133.33400491 -314.4958754 131.66735121 -313.74609375 130 C-305.76523159 112.57718521 -295.98137406 96.93693123 -284 82 C-283.45472656 81.22527344 -282.90945313 80.45054688 -282.34765625 79.65234375 C-281.68056641 78.83443359 -281.68056641 78.83443359 -281 78 C-280.34 78 -279.68 78 -279 78 C-278.938125 77.443125 -278.87625 76.88625 -278.8125 76.3125 C-277.90283319 73.72344831 -276.60587433 72.49857104 -274.6652832 70.61694336 C-272.62795379 68.63875355 -270.63386094 66.62031374 -268.63671875 64.6015625 C-266.98704484 62.94264302 -265.33730342 61.28379068 -263.6875 59.625 C-262.87087891 58.8 -262.05425781 57.975 -261.21289062 57.125 C-247.71251547 43.57083849 -247.71251547 43.57083849 -243 42 C-243 41.34 -243 40.68 -243 40 C-241.2163382 38.68009027 -239.37010988 37.44427809 -237.5 36.25 C-233.13768828 33.41886483 -228.91459751 30.52392513 -224.81640625 27.32421875 C-222.62233604 25.72467079 -220.34437733 24.3709218 -218 23 C-216.91589844 22.35804687 -215.83179688 21.71609375 -214.71484375 21.0546875 C-204.80138717 15.29720604 -194.59788091 10.52397897 -184.09716797 5.94091797 C-182.26153946 5.11734262 -180.45576291 4.22788145 -178.65625 3.328125 C-174.88508878 1.44254439 -171.01361503 0.26656856 -167 -1 C-165.84371094 -1.38285156 -164.68742188 -1.76570312 -163.49609375 -2.16015625 C-111.03323905 -19.35879643 -51.98081585 -18.85354114 0 0 Z M-134 107 C-135.51145038 107.59053109 -137.0231858 108.180333 -138.53515625 108.76953125 C-147.21733981 112.05277387 -147.21733981 112.05277387 -155 117 C-156.6565352 118.01669509 -158.32412173 119.01551546 -160 120 C-161.9435063 121.17764417 -163.88097026 122.36531356 -165.8125 123.5625 C-166.78832031 124.16191406 -167.76414063 124.76132813 -168.76953125 125.37890625 C-169.87361328 126.18134766 -169.87361328 126.18134766 -171 127 C-171 127.66 -171 128.32 -171 129 C-171.556875 129.061875 -172.11375 129.12375 -172.6875 129.1875 C-175.9681797 130.34017125 -177.58874133 132.50848236 -180 135 C-180.8971875 135.88558594 -181.794375 136.77117187 -182.71875 137.68359375 C-189.72641646 144.51329086 -189.72641646 144.51329086 -196 152 C-196 152.66 -196 153.32 -196 154 C-196.66 154 -197.32 154 -198 154 C-199.62028548 156.1362854 -199.62028548 156.1362854 -201.25 158.875 C-201.87003906 159.87917969 -202.49007812 160.88335937 -203.12890625 161.91796875 C-203.74636719 162.93503906 -204.36382812 163.95210938 -205 165 C-205.81791016 166.32451172 -205.81791016 166.32451172 -206.65234375 167.67578125 C-212.43278941 177.13335519 -216.42170314 186.48945406 -220 197 C-220.24516357 197.64686768 -220.49032715 198.29373535 -220.74291992 198.96020508 C-223.22368498 205.7597744 -224.20550008 212.66338776 -225.1875 219.8125 C-225.36474609 221.00681641 -225.54199219 222.20113281 -225.72460938 223.43164062 C-230.70333417 258.74406324 -219.83534199 291.93470922 -202 322 C-201.34 322 -200.68 322 -200 322 C-199.77183594 322.69738281 -199.54367188 323.39476562 -199.30859375 324.11328125 C-197.7242632 327.60826716 -195.54764695 330.30873881 -193.0625 333.1875 C-192.57450928 333.75629883 -192.08651855 334.32509766 -191.58374023 334.91113281 C-183.45564396 344.21454842 -174.06115195 351.87446268 -164 359 C-163.15179688 359.60585938 -162.30359375 360.21171875 -161.4296875 360.8359375 C-149.94278612 368.59925617 -136.33257568 374.29926028 -123 378 C-121.80503906 378.37125 -120.61007813 378.7425 -119.37890625 379.125 C-97.37668578 385.25930191 -68.76080027 384.75127322 -47 378 C-46.56964362 374.0079141 -46.56964362 374.0079141 -48.94140625 371.703125 C-49.80636719 370.89359375 -50.67132813 370.0840625 -51.5625 369.25 C-54.5386815 366.4414269 -57.3321641 363.65005925 -59.9765625 360.52734375 C-63.3156523 356.65959129 -66.88169796 353.07107159 -70.51953125 349.48828125 C-71.40225456 348.61739365 -71.40225456 348.61739365 -72.30281067 347.72891235 C-74.76290741 345.30528865 -77.22584684 342.88472041 -79.69799805 340.47338867 C-81.5202891 338.69343775 -83.3329846 336.90415723 -85.14453125 335.11328125 C-85.98199638 334.30374748 -85.98199638 334.30374748 -86.83638 333.4778595 C-89.80634651 330.52770529 -91.88962701 328.07165267 -93 324 C-93 315.65738509 -87.47547721 310.38752094 -81.92236328 304.72705078 C-80.39321234 303.21154573 -78.85897148 301.70116332 -77.3203125 300.1953125 C-76.50754852 299.39012177 -75.69478455 298.58493103 -74.85739136 297.75534058 C-72.28474895 295.20695933 -69.70570431 292.66521511 -67.125 290.125 C-63.70527457 286.75827401 -60.2920987 283.3851054 -56.8828125 280.0078125 C-56.09230499 279.23390167 -55.30179749 278.45999084 -54.48733521 277.66262817 C-53.76593353 276.94783295 -53.04453186 276.23303772 -52.30126953 275.49658203 C-51.66206573 274.86785187 -51.02286194 274.2391217 -50.36428833 273.59133911 C-48.78304357 272.09628704 -48.78304357 272.09628704 -49 270 C-48.34 270 -47.68 270 -47 270 C-45.62799573 268.60789216 -45.62799573 268.60789216 -44.25 266.8125 C-41.45723678 263.4300028 -38.37311521 260.81092934 -35 258 C-34.00434616 256.8052154 -33.02562867 255.59615518 -32.0625 254.375 C-29.13074682 250.87827355 -26.46688645 249.25386286 -22 248 C-15.84570116 248 -13.34419769 250.05991373 -9 254 C-8.34 254 -7.68 254 -7 254 C-7 254.66 -7 255.32 -7 256 C-5.46249907 257.55900514 -5.46249907 257.55900514 -3.46166992 259.16943359 C0.68683951 262.69909327 4.5528259 266.42331094 8.38671875 270.2890625 C9.38406792 271.28853409 9.38406792 271.28853409 10.40156555 272.30819702 C12.49926759 274.4114317 14.59344856 276.5181313 16.6875 278.625 C18.10197896 280.04450462 19.51669068 281.46377735 20.93164062 282.8828125 C23.52707579 285.48636335 26.12117463 288.09122911 28.71362305 290.69775391 C29.27397751 291.26079727 29.83433197 291.82384064 30.41166687 292.40394592 C31.43540462 293.4326601 32.45872196 294.46179292 33.48152161 295.49143982 C35.68545637 297.70514258 37.88882552 299.8397417 40.3125 301.8125 C41.199375 302.534375 42.08625 303.25625 43 304 C60.95959859 272.20768931 60.51782819 232.61663216 51.27905273 198.32397461 C49.84447997 193.29610708 48.09833773 188.72345295 45.6875 184.0625 C45.22911743 183.17328857 45.22911743 183.17328857 44.76147461 182.26611328 C43.84980127 180.50614622 42.92510876 178.75294213 42 177 C41.50242187 176.03707031 41.00484375 175.07414062 40.4921875 174.08203125 C36.79114344 167.07431667 32.52935939 160.49948586 28 154 C27.46761719 153.22527344 26.93523437 152.45054687 26.38671875 151.65234375 C25.92910156 151.10707031 25.47148437 150.56179687 25 150 C24.34 150 23.68 150 23 150 C22.73445312 149.41863281 22.46890625 148.83726562 22.1953125 148.23828125 C10.13002266 125.64543459 -21.09284037 111.311676 -44.26953125 103.90625 C-73.32899295 95.23559008 -105.72521619 95.49465319 -134 107 Z " fill="#D4BFF9" transform="translate(338,15)"/>
<path d="M0 0 C1.03350586 -0.00999023 2.06701172 -0.01998047 3.13183594 -0.03027344 C4.09250977 -0.01899414 5.05318359 -0.00771484 6.04296875 0.00390625 C6.89270264 0.01365479 7.74243652 0.02340332 8.61791992 0.03344727 C11.34292764 0.53515911 12.09348623 1.29971156 13.8125 3.4375 C14.08664821 6.48692943 14.18488552 9.32773913 14.140625 12.375 C14.13875183 13.25148193 14.13687866 14.12796387 14.13494873 15.03100586 C14.12822783 16.88366501 14.11431255 18.73630996 14.09375 20.58886719 C14.06261994 23.42656629 14.05278104 26.26370962 14.046875 29.1015625 C14.03770376 30.90104845 14.0273276 32.70052874 14.015625 34.5 C14.01137512 35.35005615 14.00712524 36.2001123 14.00274658 37.07592773 C13.96193767 40.43543411 13.88187629 43.22937112 12.8125 46.4375 C12.26013672 46.42178955 11.70777344 46.4060791 11.13867188 46.38989258 C-14.24893959 45.7667708 -34.7137467 50.2547765 -54.1875 67.4375 C-59.08275741 72.24732534 -62.94769207 77.18661089 -66.08203125 83.296875 C-67.1875 85.4375 -67.1875 85.4375 -68.6953125 87.890625 C-74.75839889 98.23913894 -75.17712724 109.90978688 -75.95385742 121.58666992 C-76.1875 123.4375 -76.1875 123.4375 -77.1875 124.4375 C-78.53844982 124.53018999 -79.89417091 124.55497326 -81.24829102 124.55102539 C-82.10910782 124.55094986 -82.96992462 124.55087433 -83.85682678 124.55079651 C-84.79223801 124.54563522 -85.72764923 124.54047394 -86.69140625 124.53515625 C-87.64442123 124.5337413 -88.59743622 124.53232635 -89.57933044 124.53086853 C-92.63625165 124.52525152 -95.69310077 124.51269616 -98.75 124.5 C-100.81705624 124.49498719 -102.88411362 124.49042391 -104.95117188 124.48632812 C-110.02997588 124.47527656 -115.1087257 124.45800055 -120.1875 124.4375 C-120.20949069 121.24870899 -120.22267946 118.05993783 -120.234375 114.87109375 C-120.24065918 113.97531616 -120.24694336 113.07953857 -120.25341797 112.15661621 C-120.3051114 93.33589891 -114.64737063 75.61178985 -105.1875 59.4375 C-104.41576721 58.08384573 -103.64485325 56.72972409 -102.875 55.375 C-102.318125 54.405625 -101.76125 53.43625 -101.1875 52.4375 C-100.5275 52.4375 -99.8675 52.4375 -99.1875 52.4375 C-99.12433594 51.90511719 -99.06117188 51.37273437 -98.99609375 50.82421875 C-97.83066597 47.38423628 -95.59184108 44.95452784 -93.25 42.25 C-92.76072021 41.67846191 -92.27144043 41.10692383 -91.76733398 40.51806641 C-86.2503069 34.18879801 -80.13876064 28.18974188 -73.1875 23.4375 C-72.5275 23.4375 -71.8675 23.4375 -71.1875 23.4375 C-71.1875 22.7775 -71.1875 22.1175 -71.1875 21.4375 C-49.90549116 6.7966854 -25.63803155 0.14730045 0 0 Z " fill="#8B81A5" transform="translate(258.1875,140.5625)"/>
<path d="M0 0 C0.92941406 0.32871094 1.85882813 0.65742188 2.81640625 0.99609375 C5.55338283 1.97440109 8.27802507 2.9807761 11 4 C12.16208984 4.42539062 12.16208984 4.42539062 13.34765625 4.859375 C25.81584319 9.60519574 37.61612262 16.09557733 49 23 C49.83015625 23.48726562 50.6603125 23.97453125 51.515625 24.4765625 C53.38058499 25.59162599 55.19739873 26.78671068 57 28 C57 28.66 57 29.32 57 30 C57.53109375 30.07347656 58.0621875 30.14695313 58.609375 30.22265625 C61.95471004 31.31043676 64.48905947 33.32716388 67.25 35.4375 C67.80429687 35.84548828 68.35859375 36.25347656 68.9296875 36.67382812 C70.32810909 37.72953309 71.66950652 38.85987587 73 40 C73 40.66 73 41.32 73 42 C73.8353125 42.0928125 73.8353125 42.0928125 74.6875 42.1875 C77.95969275 43.33718934 79.5815803 45.52598444 82 48 C83.92968347 49.78063206 85.86580212 51.55082795 87.8125 53.3125 C108.08860324 71.83718934 108.08860324 71.83718934 112.0703125 80.265625 C112.93785659 82.36080449 112.93785659 82.36080449 116 83 C117.578125 85.15234375 117.578125 85.15234375 119.25 87.9375 C121.56707898 91.71005507 123.93041497 95.39447867 126.5 99 C127.6675333 100.66605969 128.83421458 102.3327168 130 104 C130.53109375 104.74636719 131.0621875 105.49273437 131.609375 106.26171875 C148.32491 130.97683121 159.18425397 161.92675639 165 191 C165.2794043 192.37164307 165.2794043 192.37164307 165.56445312 193.77099609 C168.72250654 209.9921501 169.37700991 225.89303184 169.375 242.375 C169.37681274 243.34344849 169.37862549 244.31189697 169.38049316 245.30969238 C169.37401651 275.85747891 169.37401651 275.85747891 164 282 C164.14392093 279.87486962 164.29025196 277.74990244 164.4375 275.625 C164.51871094 274.44164062 164.59992188 273.25828125 164.68359375 272.0390625 C164.89015395 269.16973408 165.19209366 266.32266928 165.51953125 263.46484375 C166.20990965 256.63495936 166.24217687 249.79676305 166.25 242.9375 C166.25133942 242.23946259 166.25267883 241.54142517 166.25405884 240.82223511 C166.24851361 227.38386012 165.07526124 214.28360693 163 201 C162.8772168 200.17951172 162.75443359 199.35902344 162.62792969 198.51367188 C161.15507296 188.78389106 158.99387242 179.38119783 156 170 C155.53932129 168.53264404 155.53932129 168.53264404 155.06933594 167.03564453 C148.64129989 146.67419515 140.78749994 128.38129671 130 110 C129.48050781 109.10667969 128.96101563 108.21335937 128.42578125 107.29296875 C126.50162219 104.08603698 125.15479657 102.10319771 122 100 C121.04296875 98.3359375 121.04296875 98.3359375 120.1875 96.375 C117.98715379 91.76750813 115.18555821 87.97307929 112 84 C111.32839844 83.154375 110.65679687 82.30875 109.96484375 81.4375 C102.30401669 71.92564418 94.42337487 62.80342363 85 55 C83.83169645 54.00191286 82.66499435 53.00194774 81.5 52 C80.92507813 51.51015625 80.35015625 51.0203125 79.7578125 50.515625 C78.57557386 49.49627257 77.40376338 48.46471202 76.2421875 47.421875 C60.2494493 33.10201736 42.4030067 22.07411179 23 13 C21.93313965 12.49557373 21.93313965 12.49557373 20.84472656 11.98095703 C4.59766149 4.3451951 -11.61028278 -0.87395027 -29.125 -4.75 C-29.79178772 -4.89897736 -30.45857544 -5.04795471 -31.14556885 -5.20144653 C-43.64556599 -7.97022878 -56.40296617 -10.34313587 -69.25 -10.1875 C-70.45140625 -10.18105469 -71.6528125 -10.17460937 -72.890625 -10.16796875 C-75.44515656 -10.0299727 -77.57032544 -9.75175574 -80 -9 C-80 -9.33 -80 -9.66 -80 -10 C-93.48191183 -10.22315362 -106.69620022 -10.14428434 -120.0625 -8.26464844 C-121.82940687 -8.02330178 -123.60214764 -7.82569227 -125.375 -7.6328125 C-133.13115521 -6.71922691 -140.61127834 -4.99329973 -148.1875 -3.125 C-149.18539551 -2.88040039 -150.18329102 -2.63580078 -151.21142578 -2.38378906 C-157.98143476 -0.66417324 -164.48563717 1.48480683 -171 4 C-171.72517822 4.2789209 -172.45035645 4.5578418 -173.19750977 4.84521484 C-183.76993722 8.98175485 -193.9389876 13.75088862 -204 19 C-204.6305127 19.32564941 -205.26102539 19.65129883 -205.91064453 19.98681641 C-213.51060309 23.71734898 -213.51060309 23.71734898 -220 29 C-225.44444444 32 -225.44444444 32 -228 32 C-228 32.66 -228 33.32 -228 34 C-229.91035043 35.40922512 -231.82273911 36.71173956 -233.8125 38 C-239.54272799 41.82722635 -244.5366278 45.98847847 -249.5625 50.71484375 C-251.61613407 52.64012569 -253.70535737 54.45910964 -255.875 56.25 C-258.05560959 58.08956638 -259.63869633 59.7664356 -261.5 62 C-263.42179909 64.30615891 -264.96392686 65.85759283 -267.25 67.6875 C-272.22231324 71.83288426 -276.02168275 76.92601504 -280 82 C-280.80695313 83.00289063 -281.61390625 84.00578125 -282.4453125 85.0390625 C-299.17053516 106.02538359 -311.35133138 130.0692786 -321 155 C-324.02094942 145.93715174 -315.11708586 131.94466015 -311.0625 123.8125 C-307.97096483 117.70439343 -304.65727271 111.78987764 -301 106 C-300.48050781 105.1440625 -299.96101563 104.288125 -299.42578125 103.40625 C-294.77643166 95.86324927 -289.46065574 88.95947209 -284 82 C-283.44828125 81.21496094 -282.8965625 80.42992188 -282.328125 79.62109375 C-281.88984375 79.08613281 -281.4515625 78.55117187 -281 78 C-280.34 78 -279.68 78 -279 78 C-278.938125 77.443125 -278.87625 76.88625 -278.8125 76.3125 C-277.90283319 73.72344831 -276.60587433 72.49857104 -274.6652832 70.61694336 C-272.62795379 68.63875355 -270.63386094 66.62031374 -268.63671875 64.6015625 C-266.98704484 62.94264302 -265.33730342 61.28379068 -263.6875 59.625 C-262.87087891 58.8 -262.05425781 57.975 -261.21289062 57.125 C-247.71251547 43.57083849 -247.71251547 43.57083849 -243 42 C-243 41.34 -243 40.68 -243 40 C-241.2163382 38.68009027 -239.37010988 37.44427809 -237.5 36.25 C-233.13768828 33.41886483 -228.91459751 30.52392513 -224.81640625 27.32421875 C-222.62233604 25.72467079 -220.34437733 24.3709218 -218 23 C-216.91589844 22.35804687 -215.83179688 21.71609375 -214.71484375 21.0546875 C-204.80138717 15.29720604 -194.59788091 10.52397897 -184.09716797 5.94091797 C-182.26153946 5.11734262 -180.45576291 4.22788145 -178.65625 3.328125 C-174.88508878 1.44254439 -171.01361503 0.26656856 -167 -1 C-165.84371094 -1.38285156 -164.68742188 -1.76570312 -163.49609375 -2.16015625 C-111.03323905 -19.35879643 -51.98081585 -18.85354114 0 0 Z " fill="#F5ECFE" transform="translate(338,15)"/>
<path d="M0 0 C1.17452225 -0.00953201 1.17452225 -0.00953201 2.37277222 -0.01925659 C39.12962275 -0.2045982 72.35620335 14.88769883 99.25 39.4375 C99.99894531 40.11425781 100.74789062 40.79101562 101.51953125 41.48828125 C105.83771299 45.59539097 109.54739471 50.1558094 113.25 54.8125 C113.99092896 55.74231689 113.99092896 55.74231689 114.74682617 56.69091797 C118.25 61.19012262 118.25 61.19012262 118.25 63.4375 C118.91 63.4375 119.57 63.4375 120.25 63.4375 C120.56453125 64.07816406 120.8790625 64.71882813 121.203125 65.37890625 C123.10982043 69.23249852 125.0158964 73.03725836 127.1875 76.75 C145.54940607 108.58717584 148.05385757 148.47007514 139.03613281 183.64550781 C136.93875505 191.09445565 134.5954087 198.32353794 131 205.1875 C130.47921875 206.19296875 129.9584375 207.1984375 129.421875 208.234375 C129.03515625 208.96140625 128.6484375 209.6884375 128.25 210.4375 C126.93 210.1075 125.61 209.7775 124.25 209.4375 C124.25 208.7775 124.25 208.1175 124.25 207.4375 C123.65832031 207.17179199 123.06664062 206.90608398 122.45703125 206.63232422 C120.19315531 205.4067259 118.73348058 204.15111967 116.9375 202.3203125 C116.03644531 201.40958984 116.03644531 201.40958984 115.1171875 200.48046875 C114.50101563 199.84753906 113.88484375 199.21460938 113.25 198.5625 C112.63382813 197.93730469 112.01765625 197.31210937 111.3828125 196.66796875 C110.19460497 195.46191261 109.00955537 194.25273476 107.828125 193.04003906 C106.51515026 191.70675221 105.1678491 190.40737559 103.8125 189.1171875 C102.25 187.4375 102.25 187.4375 102.25 185.4375 C101.36006348 185.0343457 101.36006348 185.0343457 100.45214844 184.62304688 C98.24459967 183.43459268 96.78457118 182.23007611 95.015625 180.46875 C94.44199219 179.89769531 93.86835938 179.32664062 93.27734375 178.73828125 C92.69082031 178.14402344 92.10429687 177.54976562 91.5 176.9375 C90.89800781 176.34324219 90.29601562 175.74898437 89.67578125 175.13671875 C89.10730469 174.56566406 88.53882813 173.99460937 87.953125 173.40625 C87.43395508 172.88482422 86.91478516 172.36339844 86.37988281 171.82617188 C85.25 170.4375 85.25 170.4375 85.25 168.4375 C84.41662109 168.0971875 84.41662109 168.0971875 83.56640625 167.75 C80.58468957 166.06052816 78.5629083 163.90247875 76.1875 161.4375 C71.25273246 156.13565929 71.25273246 156.13565929 64.5625 153.875 C60.90757635 153.98099188 59.25680592 154.91693305 56.58764648 157.3737793 C55.89242889 158.01149261 55.1972113 158.64920593 54.48092651 159.3062439 C50.44701049 163.15993791 46.47528178 167.07004891 42.53515625 171.01953125 C41.63880966 171.91492111 40.74246307 172.81031097 39.81895447 173.73283386 C37.93950398 175.61160776 36.06107813 177.49133991 34.18432617 179.37280273 C31.77795724 181.78491773 29.36705876 184.19244807 26.95484257 186.59871387 C24.64585567 188.90323023 22.34066856 191.2115396 20.03515625 193.51953125 C19.16858902 194.38407425 18.30202179 195.24861725 17.40919495 196.13935852 C16.61424118 196.93746445 15.81928741 197.73557037 15.00024414 198.55786133 C14.2982338 199.26066727 13.59622345 199.96347321 12.87294006 200.68757629 C11.17446915 202.3549679 11.17446915 202.3549679 10.25 204.4375 C9.59 204.4375 8.93 204.4375 8.25 204.4375 C7.816875 205.30375 7.816875 205.30375 7.375 206.1875 C7.00375 206.93 6.6325 207.6725 6.25 208.4375 C5.981875 209.118125 5.71375 209.79875 5.4375 210.5 C4.25 212.4375 4.25 212.4375 1.9375 213.8125 C-1.56681592 215.9313887 -3.49084627 218.01649577 -5.75 221.4375 C-6.72220786 225.5647034 -6.72220786 225.5647034 -5.75 229.4375 C-4.01180409 231.804788 -4.01180409 231.804788 -1.76977539 234.12695312 C-0.54377121 235.44433472 -0.54377121 235.44433472 0.70700073 236.78833008 C4.56159688 240.80385628 8.47683172 244.74944719 12.44140625 248.65625 C14.14400574 250.34622771 15.84647616 252.03633545 17.54882812 253.7265625 C20.20038126 256.35311733 22.85353174 258.97802279 25.5090332 261.60058594 C28.09495795 264.15651046 30.67479296 266.71845511 33.25390625 269.28125 C34.05687637 270.0707605 34.8598465 270.860271 35.68714905 271.67370605 C36.78475807 272.76624695 36.78475807 272.76624695 37.90454102 273.88085938 C38.55246109 274.52132202 39.20038116 275.16178467 39.86793518 275.82165527 C41.25 277.4375 41.25 277.4375 41.25 279.4375 C36.9214271 278.96105287 34.87810252 276.39878788 31.9375 273.375 C31.03386719 272.45589844 30.13023437 271.53679687 29.19921875 270.58984375 C27.13884126 268.42808534 25.18972425 266.19856612 23.2578125 263.921875 C19.91935912 260.07522722 16.3558582 256.49830611 12.73046875 252.92578125 C12.1419664 252.34513412 11.55346405 251.764487 10.9471283 251.16624451 C8.48699699 248.74273296 6.02411448 246.32218268 3.55200195 243.91088867 C1.7297109 242.13093775 -0.0829846 240.34165723 -1.89453125 238.55078125 C-2.73199638 237.74124748 -2.73199638 237.74124748 -3.58638 236.9153595 C-6.55634651 233.96520529 -8.63962701 231.50915267 -9.75 227.4375 C-9.75 219.10005501 -4.22590595 213.8334816 1.31176758 208.16455078 C2.83436076 206.64893706 4.36217952 205.13855921 5.89453125 203.6328125 C6.70492355 202.82762177 7.51531586 202.02243103 8.3502655 201.19284058 C10.91625136 198.64453943 13.48888401 196.1030931 16.0625 193.5625 C18.65304074 190.99957697 21.24209578 188.43519566 23.82829285 185.8678894 C25.43257703 184.27586882 27.0395267 182.68652892 28.64936829 181.10012817 C29.37069443 180.38533295 30.09202057 179.67053772 30.83520508 178.93408203 C31.47218826 178.30535187 32.10917145 177.6766217 32.76545715 177.02883911 C34.34200939 175.4894132 34.34200939 175.4894132 35.25 173.4375 C35.91 173.4375 36.57 173.4375 37.25 173.4375 C37.91 172.1175 38.57 170.7975 39.25 169.4375 C39.91 169.4375 40.57 169.4375 41.25 169.4375 C41.91 168.1175 42.57 166.7975 43.25 165.4375 C43.91 165.4375 44.57 165.4375 45.25 165.4375 C45.91 164.1175 46.57 162.7975 47.25 161.4375 C47.91 161.4375 48.57 161.4375 49.25 161.4375 C49.91 160.1175 50.57 158.7975 51.25 157.4375 C51.91 157.4375 52.57 157.4375 53.25 157.4375 C53.435625 156.839375 53.62125 156.24125 53.8125 155.625 C56.01794061 152.26889472 58.47714933 151.61265021 62.25 150.4375 C68.05528836 150.3319493 71.32026811 152.54679624 75.74609375 155.96484375 C76.49052734 156.69380859 76.49052734 156.69380859 77.25 157.4375 C77.25 158.0975 77.25 158.7575 77.25 159.4375 C77.83411148 159.6962944 78.41822296 159.95508881 79.02003479 160.22172546 C81.42379288 161.53225169 83.00343374 162.94998722 84.92944336 164.88989258 C85.98590309 165.9465789 85.98590309 165.9465789 87.06370544 167.02461243 C88.19039391 168.16678474 88.19039391 168.16678474 89.33984375 169.33203125 C90.12138321 170.1164006 90.90292267 170.90076996 91.70814514 171.70890808 C94.20599818 174.21794849 96.69682109 176.73383977 99.1875 179.25 C100.86086676 180.93340145 102.53468979 182.61634948 104.20898438 184.29882812 C107.28921921 187.39538824 110.36681214 190.49452118 113.44116211 193.59692383 C114.10211884 194.2631778 114.76307556 194.92943176 115.44406128 195.61587524 C116.55484512 196.73630714 117.66443072 197.85793034 118.77200317 198.98153687 C121.45185478 201.68910229 124.23202887 204.10935084 127.25 206.4375 C143.00529157 170.60066877 145.04763466 131.63125239 132.25 94.4375 C131.2145886 92.09340881 130.11481014 89.77613293 128.9375 87.5 C128.47911743 86.61078857 128.47911743 86.61078857 128.01147461 85.70361328 C127.09980127 83.94364622 126.17510876 82.19044213 125.25 80.4375 C124.75242187 79.47457031 124.25484375 78.51164062 123.7421875 77.51953125 C120.52728543 71.43229864 116.88210362 65.73926321 112.984375 60.06640625 C111.55251796 57.89604637 110.34077065 55.79156116 109.25 53.4375 C108.59 53.4375 107.93 53.4375 107.25 53.4375 C105.81974774 51.79656743 104.4557761 50.09758997 103.125 48.375 C99.17355282 43.45610788 95.20033478 39.32954766 90.25 35.4375 C89.35539063 34.72980469 88.46078125 34.02210938 87.5390625 33.29296875 C57.35838871 10.04355206 20.36062052 -1.28839515 -17.64526367 3.62231445 C-28.8400206 5.18343904 -39.25069347 7.16520693 -49.75 11.4375 C-51.26145038 12.02803109 -52.7731858 12.617833 -54.28515625 13.20703125 C-62.98839471 16.459237 -62.98839471 16.459237 -70.75 21.4375 C-72.41666667 22.4375 -74.08333333 23.4375 -75.75 24.4375 C-78.09448852 26.0249141 -80.43211622 27.62128112 -82.76171875 29.23046875 C-84.75 30.4375 -84.75 30.4375 -86.75 30.4375 C-86.75 31.0975 -86.75 31.7575 -86.75 32.4375 C-87.36875 32.52 -87.9875 32.6025 -88.625 32.6875 C-90.9080441 33.21445323 -90.9080441 33.21445323 -91.65625 35.28515625 C-92.9111741 37.7546676 -94.22849776 38.89326015 -96.375 40.625 C-100.38545255 43.99143827 -103.72699853 47.70686677 -107.0859375 51.71484375 C-107.63507813 52.28332031 -108.18421875 52.85179687 -108.75 53.4375 C-109.41 53.4375 -110.07 53.4375 -110.75 53.4375 C-111.08 54.7575 -111.41 56.0775 -111.75 57.4375 C-112.41 57.4375 -113.07 57.4375 -113.75 57.4375 C-114.01425781 58.159375 -114.27851563 58.88125 -114.55078125 59.625 C-115.7702757 62.48505213 -117.21550888 64.85254308 -118.9375 67.4375 C-126.3870189 79.00671127 -132.64895925 90.94467374 -135.75 104.4375 C-136.41 104.4375 -137.07 104.4375 -137.75 104.4375 C-138.245 105.4275 -138.245 105.4275 -138.75 106.4375 C-135.59813827 85.174194 -123.26127413 64.86850278 -108.75 49.4375 C-107.40844097 47.96578972 -106.0743675 46.48719956 -104.75 45 C-104.193125 44.38253906 -103.63625 43.76507813 -103.0625 43.12890625 C-101.53972717 41.35962083 -101.53972717 41.35962083 -100.75 38.4375 C-99.11312336 37.38944817 -97.44112293 36.39556106 -95.75 35.4375 C-94.16695005 34.21362945 -92.60490405 32.96221409 -91.0625 31.6875 C-75.19050832 18.91077942 -58.27858845 10.21204116 -38.75 4.4375 C-37.64156738 4.0986377 -37.64156738 4.0986377 -36.51074219 3.75292969 C-24.50724463 0.24404917 -12.40837242 0.0516508 0 0 Z " fill="#F5E8FE" transform="translate(253.75,111.5625)"/>
<path d="M0 0 C1.05883789 1.78100586 1.05883789 1.78100586 2 4 C1.28022548 6.6789948 0.4881569 9.01836459 -0.5625 11.5625 C-0.84552979 12.27776855 -1.12855957 12.99303711 -1.42016602 13.72998047 C-3.75801399 19.57492886 -6.25849637 25.33262261 -9 31 C-9.52335937 32.08667969 -10.04671875 33.17335938 -10.5859375 34.29296875 C-15.26501944 43.83109732 -20.19615089 53.31883534 -26.11328125 62.15625 C-27.61158143 64.41455752 -28.82516626 66.57294243 -30 69 C-24.7823003 75.20944419 -19.15578942 80.96684468 -13.40105057 86.67411423 C-11.81833461 88.2438938 -10.23891584 89.81692782 -8.6602478 91.39077759 C-5.31799671 94.72170278 -1.97178053 98.04862667 1.375 101.375 C5.27680862 105.25317983 9.17696036 109.13299727 13.07295609 113.01701736 C14.62923841 114.56681837 16.18849812 116.11358086 17.74789429 117.6602478 C18.69584558 118.60456892 19.64365807 119.54902939 20.59130859 120.49365234 C21.42068939 121.31779633 22.25007019 122.14194031 23.10458374 122.99105835 C25.51713591 125.54810961 25.94496233 126.6068738 26.4375 130.125 C25.52285721 138.22612188 18.197981 144.05370605 12.5625 149.5 C11.29039884 150.73694586 10.02086199 151.9765344 8.75390625 153.21875 C8.20033447 153.75435547 7.6467627 154.28996094 7.07641602 154.84179688 C5.25979715 156.72996981 3.54907993 158.66044498 1.83740234 160.64282227 C-4.82087301 168.29656548 -12.0477184 175.42875291 -19.1784668 182.63842773 C-21.02321916 184.50995112 -22.86076899 186.38860049 -24.69116211 188.27416992 C-27.34902255 191.01097907 -30.0290269 193.72424897 -32.71484375 196.43359375 C-33.52654526 197.2782872 -34.33824677 198.12298065 -35.17454529 198.99327087 C-41.60282147 205.39923605 -41.60282147 205.39923605 -46.14282227 206.22290039 C-53.53305453 205.79583019 -57.97166033 202.62629404 -63.02709961 197.47460938 C-63.58407532 196.92303665 -64.14105103 196.37146393 -64.71490479 195.80317688 C-66.53739888 193.9931037 -68.34509443 192.16903442 -70.15234375 190.34375 C-71.41963595 189.07661286 -72.68759584 187.81014318 -73.95619202 186.54431152 C-76.60423175 183.89765254 -79.24519149 181.24418554 -81.88110352 178.58544922 C-85.26439845 175.17366919 -88.66314675 171.77779068 -92.06705379 168.38658905 C-94.68313424 165.77745033 -97.29181425 163.16101539 -99.89819527 160.54219055 C-101.149286 159.28657783 -102.40248189 158.03305913 -103.65778923 156.78166199 C-105.4055476 155.03680356 -107.14332575 153.28259194 -108.87866211 151.52539062 C-109.40065689 151.00789749 -109.92265167 150.49040436 -110.46046448 149.95722961 C-114 146.34302211 -114 146.34302211 -114 143 C-110.14871266 144.56904299 -107.8776764 147.0465417 -105 150 C-103.7739505 151.25269684 -103.7739505 151.25269684 -102.52313232 152.53070068 C-101.6553717 153.42259094 -100.78761108 154.3144812 -99.89355469 155.23339844 C-94.9820872 160.27534619 -90.05050222 165.29709955 -85.10692978 170.3075676 C-82.12507379 173.33124607 -79.15118835 176.36199263 -76.19384766 179.40966797 C-73.32034387 182.37032987 -70.42751598 185.31079757 -67.52048492 188.23853302 C-66.42105214 189.35268046 -65.32865183 190.47381557 -64.24373627 191.60210419 C-57.70919609 198.81745219 -57.70919609 198.81745219 -48.93457031 202.26269531 C-44.82547629 201.98834776 -43.09582966 201.65356828 -40 199 C-38.65080468 197.34614767 -37.31866272 195.678298 -36 194 C-34.01739574 192.31267723 -32.0167658 190.64633943 -30 189 C-27.31279024 186.44387364 -24.90251536 183.8800189 -22.5625 181 C-20.38678611 178.45282276 -18.21523895 176.49102529 -15.60546875 174.41796875 C-13.01783977 172.13254461 -10.88608225 169.46460869 -8.65234375 166.83984375 C-6.64066417 164.59988847 -4.3487285 162.8789828 -2 161 C-0.98120976 159.87084081 0.01622507 158.72229348 1 157.5625 C4.95741792 152.91033538 9.28340637 148.66188698 13.64453125 144.39282227 C16.70136087 141.48805086 16.70136087 141.48805086 19 138 C19.66 138 20.32 138 21 138 C22.2922962 134.12311141 23.03310071 130.97443042 22 127 C20.34190745 124.66246597 20.34190745 124.66246597 18.12670898 122.39672852 C17.3065329 121.51961212 16.48635681 120.64249573 15.6413269 119.73880005 C11.25207577 115.18757196 6.82351005 110.68097211 2.34765625 106.21484375 C1.35625417 105.2227659 0.36500038 104.23053983 -0.62611389 103.23817444 C-2.68084928 101.18198041 -4.73734301 99.12756672 -6.79516602 97.07446289 C-9.4336707 94.44171509 -12.06757816 91.80442032 -14.70023251 89.16582394 C-16.73583414 87.126618 -18.77379971 85.08978806 -20.81250191 83.05368233 C-21.78568473 82.08116603 -22.75812678 81.10790787 -23.72981071 80.13389397 C-25.07909555 78.78207834 -26.43191731 77.43379577 -27.78491211 76.08569336 C-28.55274521 75.31865585 -29.32057831 74.55161835 -30.11167908 73.76133728 C-31.88758653 71.93826979 -31.88758653 71.93826979 -34 71 C-33.08407058 66.63098684 -30.8331381 63.32626748 -28.4375 59.625 C-27.5166899 58.16763809 -26.59743992 56.70928937 -25.6796875 55.25 C-24.10318809 52.74896212 -22.52516196 50.24892538 -20.9453125 47.75 C-11.99754182 32.89892833 -5.75713097 16.30847816 0 0 Z " fill="#F6E8FE" transform="translate(493,332)"/>
<path d="M0 0 C2.24213513 2.07714858 3.71493034 4.03478615 5.12890625 6.73828125 C5.51949219 7.46958252 5.91007812 8.20088379 6.3125 8.9543457 C6.725 9.73253662 7.1375 10.51072754 7.5625 11.3125 C11.20989275 18.06493997 15.13906253 24.37863551 19.77563477 30.49536133 C22.07281389 33.55027583 23.76691582 36.37446444 25 40 C25.66 40 26.32 40 27 40 C28.91015625 42.08203125 28.91015625 42.08203125 31.0625 44.8125 C31.77535156 45.70582031 32.48820312 46.59914063 33.22265625 47.51953125 C35 50 35 50 36 53 C36.66 53 37.32 53 38 53 C43 58.47619048 43 58.47619048 43 61 C43.99 61.33 44.98 61.66 46 62 C46.66 62.99 47.32 63.98 48 65 C48.99 65.33 49.98 65.66 51 66 C51.309375 66.804375 51.61875 67.60875 51.9375 68.4375 C52.71144776 71.09627357 52.71144776 71.09627357 54.7578125 71.875 C57.66280359 73.3325565 59.59509076 75.31167368 61.9375 77.5625 C67.32836259 82.5993249 73.11394645 86.77941162 79.27441406 90.84814453 C81.03056962 92.0204057 82.76234652 93.22289716 84.4921875 94.43359375 C137.01181203 130.87184915 206.14970159 145.13815223 269 134 C282.14858593 131.40819224 295.08134603 127.92787958 307.81005859 123.7409668 C308.57012207 123.49773682 309.33018555 123.25450684 310.11328125 123.00390625 C310.77110596 122.78549072 311.42893066 122.5670752 312.10668945 122.34204102 C314.34819086 121.93709666 315.84975321 122.31133544 318 123 C304.89863561 129.8301829 289.47369317 133.40934641 275 136 C274.02788574 136.18191895 273.05577148 136.36383789 272.05419922 136.55126953 C240.82305708 142.21877086 208.13763473 142.21628961 177 136 C175.60394531 135.72712158 175.60394531 135.72712158 174.1796875 135.44873047 C140.31873448 128.62408954 108.88352903 114.5339445 80.125 95.625 C78.9186792 94.83851074 78.9186792 94.83851074 77.68798828 94.03613281 C76.94790527 93.54209961 76.20782227 93.04806641 75.4453125 92.5390625 C74.78031738 92.09771973 74.11532227 91.65637695 73.43017578 91.20166016 C72.95821777 90.8051123 72.48625977 90.40856445 72 90 C72 89.34 72 88.68 72 88 C70.02 87.505 70.02 87.505 68 87 C68 86.34 68 85.68 68 85 C67.46246094 84.76925781 66.92492187 84.53851563 66.37109375 84.30078125 C63.29504058 82.6132595 60.71852433 80.45542216 58.0625 78.1875 C57.49692383 77.70539063 56.93134766 77.22328125 56.34863281 76.7265625 C46.25015108 67.99575795 37.22267131 58.51870518 29 48 C28.11992309 46.90899833 27.23834233 45.8192085 26.35546875 44.73046875 C17.60023862 33.86615714 9.61594442 22.56547477 3.15625 10.171875 C1.94507921 7.81076774 1.94507921 7.81076774 0 5 C-0.125 2.3125 -0.125 2.3125 0 0 Z " fill="#F8D5FE" transform="translate(27,369)"/>
<path d="M0 0 C2.19880138 1.73841269 4.02806791 3.3971625 5.95703125 5.3984375 C6.50485764 5.94859528 7.05268402 6.49875305 7.61711121 7.06558228 C8.77011104 8.22831011 9.91708063 9.39704473 11.05834961 10.57128906 C12.8113112 12.37377761 14.58236504 14.15679246 16.35742188 15.9375 C17.47506314 17.0692225 18.59163766 18.20199969 19.70703125 19.3359375 C20.23819046 19.87245941 20.76934967 20.40898132 21.31660461 20.96176147 C25 24.76673054 25 24.76673054 25 27 C25.53625 27.226875 26.0725 27.45375 26.625 27.6875 C31.34868874 30.29795956 34.85402228 33.73758065 38.3125 37.8125 C41.45551953 41.51057817 44.8734123 44.64046402 48.59375 47.75 C50.57068145 49.59855928 52.25656435 51.42676259 54.00390625 53.48046875 C57.15060396 57.13341485 60.49671236 60.54825101 63.93359375 63.92578125 C64.46026642 64.44453827 64.98693909 64.96329529 65.52957153 65.49777222 C67.72492899 67.65674963 69.9233426 69.8124291 72.13061523 71.95922852 C73.75911639 73.54560306 75.37818548 75.14111478 76.99609375 76.73828125 C77.49910507 77.22267166 78.00211639 77.70706207 78.52037048 78.20613098 C79.73833634 79.41490889 80.87691141 80.7025961 82 82 C82 82.99 82 83.98 82 85 C80.125 86.0625 80.125 86.0625 78 87 C77.34 86.67 76.68 86.34 76 86 C74.32459336 86.64438717 72.65816784 87.31246699 71 88 C70.01 88 69.02 88 68 88 C67.375 85.6875 67.375 85.6875 67 83 C67.99 81.515 67.99 81.515 69 80 C69.66 80.66 70.32 81.32 71 82 C73.60280568 81.67958603 73.60280568 81.67958603 76 81 C73.84414544 78.76429898 71.74069078 76.80551808 69.25 74.9375 C68.5075 74.298125 67.765 73.65875 67 73 C67 72.01 67 71.02 67 70 C65.02 69.505 65.02 69.505 63 69 C62.67 67.68 62.34 66.36 62 65 C61.01 65 60.02 65 59 65 C54 59.65116279 54 59.65116279 54 57 C53.01 57 52.02 57 51 57 C50.67 56.01 50.34 55.02 50 54 C48.68352881 53.30062468 47.34977849 52.63270867 46 52 C45.67 51.34 45.34 50.68 45 50 C43.515 49.505 43.515 49.505 42 49 C39 44.66666667 39 44.66666667 39 42 C37.515 42.495 37.515 42.495 36 43 C35.505 41.02 35.505 41.02 35 39 C34.34 39 33.68 39 33 39 C33 38.01 33 37.02 33 36 C32.34 36 31.68 36 31 36 C31 35.34 31 34.68 31 34 C29.68 34 28.36 34 27 34 C27 33.01 27 32.02 27 31 C26.34 31 25.68 31 25 31 C25 30.34 25 29.68 25 29 C24.01 28.67 23.02 28.34 22 28 C20.97029741 26.68946944 19.97581759 25.35113205 19 24 C17.35511706 22.31183067 15.68662458 20.64646685 14 19 C13.21625 18.175 12.4325 17.35 11.625 16.5 C7.81896667 12.87520635 3.68764889 10.01258933 -0.8125 7.3125 C-3 6 -3 6 -5 4 C-5.99 5.485 -5.99 5.485 -7 7 C-10.83377092 7.75418444 -13.75321652 8.27368418 -17.5625 7.4375 C-21.04641751 6.81218147 -23.6932596 7.8977532 -27 9 C-27.33 8.34 -27.66 7.68 -28 7 C-27.2575 6.71125 -26.515 6.4225 -25.75 6.125 C-23.12559067 5.11548933 -23.12559067 5.11548933 -21.26171875 4.03125 C-18.26380633 2.6643262 -15.28388413 2.05571938 -12.0625 1.375 C-10.85722656 1.11460937 -9.65195312 0.85421875 -8.41015625 0.5859375 C-2.74936087 -0.38670775 -2.74936087 -0.38670775 0 0 Z " fill="#8049E4" transform="translate(296,392)"/>
<path d="M0 0 C1.03342529 -0.00999023 2.06685059 -0.01998047 3.1315918 -0.03027344 C4.09234619 -0.01899414 5.05310059 -0.00771484 6.04296875 0.00390625 C6.89270264 0.01365479 7.74243652 0.02340332 8.61791992 0.03344727 C11.34292764 0.53515911 12.09348623 1.29971156 13.8125 3.4375 C14.08664821 6.48692943 14.18488552 9.32773913 14.140625 12.375 C14.13875183 13.25148193 14.13687866 14.12796387 14.13494873 15.03100586 C14.12822783 16.88366501 14.11431255 18.73630996 14.09375 20.58886719 C14.06261994 23.42656629 14.05278104 26.26370962 14.046875 29.1015625 C14.03770376 30.90104845 14.0273276 32.70052874 14.015625 34.5 C14.01137512 35.35005615 14.00712524 36.2001123 14.00274658 37.07592773 C13.96193767 40.43543411 13.88187629 43.22937112 12.8125 46.4375 C12.26013672 46.42178955 11.70777344 46.4060791 11.13867188 46.38989258 C-14.24893959 45.7667708 -34.7137467 50.2547765 -54.1875 67.4375 C-59.69559124 72.84946399 -63.78253154 78.51297279 -67.1875 85.4375 C-68.1775 85.4375 -69.1675 85.4375 -70.1875 85.4375 C-68.71457924 81.07507895 -66.44791038 77.92836274 -63.625 74.3125 C-60.33600788 70.18120253 -60.33600788 70.18120253 -58.1875 65.4375 C-57.0428125 64.756875 -57.0428125 64.756875 -55.875 64.0625 C-53.07729069 62.60769576 -53.07729069 62.60769576 -51.4609375 60.06640625 C-48.75185494 56.93373862 -45.81943383 55.43417077 -42.125 53.75 C-38.68037256 52.12544403 -35.36758862 50.55755908 -32.1875 48.4375 C-29.41721908 47.68300417 -26.67384215 47.00039973 -23.875 46.375 C-22.75448242 46.11493164 -22.75448242 46.11493164 -21.61132812 45.84960938 C-19.47373557 45.35978351 -17.33246901 44.89380389 -15.1875 44.4375 C-14.24261719 44.23382813 -13.29773438 44.03015625 -12.32421875 43.8203125 C-7.65286141 43.25020911 -3.01280681 43.3339223 1.6875 43.375 C6.699375 43.4059375 6.699375 43.4059375 11.8125 43.4375 C11.8125 30.2375 11.8125 17.0375 11.8125 3.4375 C-2.03383204 3.26987257 -2.03383204 3.26987257 -15.6875 4.3125 C-16.80608398 4.45002686 -16.80608398 4.45002686 -17.94726562 4.59033203 C-26.49062702 5.67594225 -34.08817853 7.10181926 -41.9609375 10.73046875 C-44.48831739 11.53302271 -45.72541109 11.32002959 -48.1875 10.4375 C-47.5275 10.4375 -46.8675 10.4375 -46.1875 10.4375 C-46.1875 9.7775 -46.1875 9.1175 -46.1875 8.4375 C-31.79609827 1.96481214 -15.62681893 0.08984327 0 0 Z " fill="#9C95B4" transform="translate(258.1875,140.5625)"/>
<path d="M0 0 C0.33 0.66 0.66 1.32 1 2 C1.66 2 2.32 2 3 2 C3.54527344 3.63195312 3.54527344 3.63195312 4.1015625 5.296875 C8.1842985 17.31323409 13.10507108 28.27418955 19.8984375 39.0390625 C21 41 21 41 21 43 C21.66 43 22.32 43 23 43 C23.88860153 44.31513027 24.76941797 45.63580933 25.625 46.97265625 C34.48253287 60.03248455 46.21756533 69.94718817 59 79 C59.84820312 79.60585938 60.69640625 80.21171875 61.5703125 80.8359375 C73.02779535 88.57937392 86.67768028 94.36812066 100 98 C100.63325195 98.17515137 101.26650391 98.35030273 101.91894531 98.53076172 C115.55939145 102.18160576 129.0718034 102.69717513 143.1418457 102.8581543 C146.15761008 103.00782194 149.03335353 103.44964408 152 104 C152 104.33 152 104.66 152 105 C124.29814443 109.18141216 96.81910357 101.62868492 71.94287109 89.90087891 C68.99028989 88.53181323 65.99810118 87.26586494 63 86 C63 85.34 63 84.68 63 84 C62.01 83.690625 62.01 83.690625 61 83.375 C56.85436833 81.47491882 53.55810186 78.82962415 50 76 C49.10410156 75.29101562 48.20820313 74.58203125 47.28515625 73.8515625 C36.71023703 65.35101015 27.77726571 56.03190854 20.0625 44.8125 C19.0415625 43.4203125 19.0415625 43.4203125 18 42 C17.34 42 16.68 42 16 42 C15.90976563 41.31164062 15.81953125 40.62328125 15.7265625 39.9140625 C14.84230025 36.36750532 13.18303829 33.51039476 11.375 30.375 C8.02497993 24.35046572 5.36893872 18.22163905 3 11.75 C2.69755371 10.92806152 2.39510742 10.10612305 2.08349609 9.25927734 C0 3.41645614 0 3.41645614 0 0 Z " fill="#F7DCFE" transform="translate(115,294)"/>
<path d="M0 0 C2.19880138 1.73841269 4.02806791 3.3971625 5.95703125 5.3984375 C6.50485764 5.94859528 7.05268402 6.49875305 7.61711121 7.06558228 C8.77011104 8.22831011 9.91708063 9.39704473 11.05834961 10.57128906 C12.8113112 12.37377761 14.58236504 14.15679246 16.35742188 15.9375 C17.47506314 17.0692225 18.59163766 18.20199969 19.70703125 19.3359375 C20.23819046 19.87245941 20.76934967 20.40898132 21.31660461 20.96176147 C25 24.76673054 25 24.76673054 25 27 C25.928125 27.3403125 25.928125 27.3403125 26.875 27.6875 C29.61410209 29.37929835 30.05024472 30.99244161 31 34 C29.68 34 28.36 34 27 34 C27 33.01 27 32.02 27 31 C26.34 31 25.68 31 25 31 C25 30.34 25 29.68 25 29 C24.01 28.67 23.02 28.34 22 28 C20.97029741 26.68946944 19.97581759 25.35113205 19 24 C17.35511706 22.31183067 15.68662458 20.64646685 14 19 C13.21625 18.175 12.4325 17.35 11.625 16.5 C7.81896667 12.87520635 3.68764889 10.01258933 -0.8125 7.3125 C-3 6 -3 6 -5 4 C-5.99 5.485 -5.99 5.485 -7 7 C-10.83377092 7.75418444 -13.75321652 8.27368418 -17.5625 7.4375 C-21.04641751 6.81218147 -23.6932596 7.8977532 -27 9 C-27.33 8.34 -27.66 7.68 -28 7 C-27.2575 6.71125 -26.515 6.4225 -25.75 6.125 C-23.12559067 5.11548933 -23.12559067 5.11548933 -21.26171875 4.03125 C-18.26380633 2.6643262 -15.28388413 2.05571938 -12.0625 1.375 C-10.85722656 1.11460937 -9.65195312 0.85421875 -8.41015625 0.5859375 C-2.74936087 -0.38670775 -2.74936087 -0.38670775 0 0 Z " fill="#7941E7" transform="translate(296,392)"/>
<path d="M0 0 C0.33 0 0.66 0 1 0 C0.54982902 5.00942046 0.03559552 9.99059981 -0.74291992 14.96069336 C-2.708121 27.56505258 -3.44492693 39.84822819 -3.33618164 52.59887695 C-3.31225725 55.59287901 -3.31569914 58.58600232 -3.32226562 61.58007812 C-3.30801703 70.67222913 -3.16131166 79.47430641 -1.4387207 88.42626953 C-0.77497277 92.32010965 -0.86644791 96.06021326 -1 100 C-5.93460787 90.68825041 -6.16198292 80.15543854 -6.23828125 69.85546875 C-6.24780319 68.77991226 -6.25732513 67.70435577 -6.26713562 66.59620667 C-6.29158931 63.12661092 -6.30412176 59.6571703 -6.3125 56.1875 C-6.31644775 55.0157019 -6.32039551 53.84390381 -6.32446289 52.63659668 C-6.35121716 35.7145218 -5.75410114 19.55826753 -2 3 C-1.34 3 -0.68 3 0 3 C0 2.01 0 1.02 0 0 Z " fill="#E6C5FE" transform="translate(6,201)"/>
<path d="M0 0 C0.66 0 1.32 0 2 0 C1.41475783 4.52284242 0.56308023 8.83468044 -0.5625 13.25 C-2.57751511 22.79986152 -2.57751511 22.79986152 -2 40 C10.54 40 23.08 40 36 40 C36.57748491 33.55391552 36.57748491 33.55391552 37.13623047 27.10620117 C37.21244629 26.30158447 37.28866211 25.49696777 37.3671875 24.66796875 C37.44050293 23.84578857 37.51381836 23.0236084 37.58935547 22.17651367 C38 20 38 20 40 17 C40.12795379 25.01843723 40.09462032 33.04035349 39 41 C38 42 38 42 36.24729919 42.12025452 C35.48562943 42.11803391 34.72395966 42.11581329 33.93920898 42.11352539 C33.07839218 42.11344986 32.21757538 42.11337433 31.33067322 42.11329651 C30.39526199 42.10813522 29.45985077 42.10297394 28.49609375 42.09765625 C27.54307877 42.0962413 26.59006378 42.09482635 25.60816956 42.09336853 C22.55124835 42.08775152 19.49439923 42.07519616 16.4375 42.0625 C14.37044376 42.05748719 12.30338638 42.05292391 10.23632812 42.04882812 C5.15752412 42.03777656 0.0787743 42.02050055 -5 42 C-5.02383912 38.8164193 -5.03811626 35.63286197 -5.05078125 32.44921875 C-5.05758911 31.55553589 -5.06439697 30.66185303 -5.07141113 29.74108887 C-5.10251321 19.29796734 -3.66447854 9.82746517 0 0 Z " fill="#9E91B9" transform="translate(143,223)"/>
<path d="M0 0 C-1.10859375 0.61488281 -2.2171875 1.22976562 -3.359375 1.86328125 C-4.82300189 2.67953471 -6.28653884 3.49594944 -7.75 4.3125 C-8.47960937 4.71662109 -9.20921875 5.12074219 -9.9609375 5.53710938 C-12.89516888 7.17761146 -15.69779414 8.7733456 -18.390625 10.79296875 C-20 12 -20 12 -22 12 C-22 12.66 -22 13.32 -22 14 C-23.64453125 15.40234375 -23.64453125 15.40234375 -25.8125 16.9375 C-27.91867071 18.43752322 -29.83703041 19.83158512 -31.63671875 21.69140625 C-33 23 -33 23 -35 23 C-35 23.99 -35 24.98 -35 26 C-35.928125 26.12375 -35.928125 26.12375 -36.875 26.25 C-39.72430962 27.25563869 -39.67235818 28.313213 -41 31 C-43.28081633 34.11781315 -45.64226505 37.16574789 -48.00390625 40.22265625 C-50.12732843 42.88719147 -50.12732843 42.88719147 -51 46 C-51.66 46 -52.32 46 -53 46 C-53.33 46.99 -53.66 47.98 -54 49 C-54.99 48.67 -55.98 48.34 -57 48 C-56.21718695 46.66144944 -55.42348123 45.32926356 -54.625 44 C-54.18414062 43.2575 -53.74328125 42.515 -53.2890625 41.75 C-52.65097656 40.88375 -52.65097656 40.88375 -52 40 C-51.34 40 -50.68 40 -50 40 C-49.93683594 39.46761719 -49.87367188 38.93523437 -49.80859375 38.38671875 C-48.64316597 34.94673628 -46.40434108 32.51702784 -44.0625 29.8125 C-43.57322021 29.24096191 -43.08394043 28.66942383 -42.57983398 28.08056641 C-37.0628069 21.75129801 -30.95126064 15.75224188 -24 11 C-23.34 11 -22.68 11 -22 11 C-22 10.34 -22 9.68 -22 9 C-19.5859375 7.37890625 -19.5859375 7.37890625 -16.375 5.5625 C-15.33085937 4.96566406 -14.28671875 4.36882812 -13.2109375 3.75390625 C-12.15132812 3.17511719 -11.09171875 2.59632813 -10 2 C-8.96101563 1.41089844 -7.92203125 0.82179687 -6.8515625 0.21484375 C-3.74389475 -1.10910785 -3.06414526 -0.96868382 0 0 Z " fill="#A69EBE" transform="translate(209,153)"/>
<path d="M0 0 C4.4253126 2.14560611 6.93733438 5.1243916 10.03125 8.80859375 C12.78070694 11.86900118 15.84755543 14.48639305 18.984375 17.140625 C20.98088091 18.98236301 22.54914196 20.70433855 24 23 C24 23.99 24 24.98 24 26 C23.01 26 22.02 26 21 26 C20.67 25.01 20.34 24.02 20 23 C18.68352881 22.30062468 17.34977849 21.63270867 16 21 C15.67 20.34 15.34 19.68 15 19 C14.01 18.67 13.02 18.34 12 18 C9 13.66666667 9 13.66666667 9 11 C8.01 11.33 7.02 11.66 6 12 C5.67 10.68 5.34 9.36 5 8 C4.34 8 3.68 8 3 8 C3 7.01 3 6.02 3 5 C2.34 5 1.68 5 1 5 C0.67 3.35 0.34 1.7 0 0 Z " fill="#7F46E7" transform="translate(326,423)"/>
<path d="M0 0 C0.495 1.98 0.495 1.98 1 4 C-0.32 4.33 -1.64 4.66 -3 5 C-3 4.67 -3 4.34 -3 4 C-4.03930664 4.01047363 -5.07861328 4.02094727 -6.14941406 4.03173828 C-10.01086981 4.06797936 -13.87231057 4.09091541 -17.73388672 4.10986328 C-19.40415985 4.1199115 -21.07441542 4.13355236 -22.74462891 4.15087891 C-25.14750504 4.17517926 -27.55014827 4.18649487 -29.953125 4.1953125 C-30.69806213 4.20563507 -31.44299927 4.21595764 -32.21051025 4.22659302 C-35.96927642 4.22740368 -38.81173711 4.10367118 -42 2 C-27.98678218 -0.15884511 -14.15702269 -0.22187016 0 0 Z " fill="#F0E9FE" transform="translate(261,1)"/>
<path d="M0 0 C-0.66 0.66 -1.32 1.32 -2 2 C-2.99 2 -3.98 2 -5 2 C-5.66 3.65 -6.32 5.3 -7 7 C-14.40777778 8.13 -14.40777778 8.13 -17.5625 7.4375 C-21.04641751 6.81218147 -23.6932596 7.8977532 -27 9 C-27.33 8.34 -27.66 7.68 -28 7 C-27.2575 6.71125 -26.515 6.4225 -25.75 6.125 C-23.12559067 5.11548933 -23.12559067 5.11548933 -21.26171875 4.03125 C-18.26380633 2.6643262 -15.28388413 2.05571938 -12.0625 1.375 C-10.85722656 1.11460937 -9.65195312 0.85421875 -8.41015625 0.5859375 C-5.50592451 0.08692861 -2.93279765 -0.12243178 0 0 Z " fill="#B37CFC" transform="translate(296,392)"/>
<path d="M0 0 C0.33 0 0.66 0 1 0 C1.05001082 5.7250852 1.08600408 11.45003894 1.10986328 17.17529297 C1.11982592 19.1167218 1.13340092 21.058136 1.15087891 22.99951172 C1.42088383 53.79595528 1.42088383 53.79595528 -4 60 C-3.45721733 51.98529415 -2.86494739 43.98696098 -2 36 C-1.34 36 -0.68 36 0 36 C0 24.12 0 12.24 0 0 Z " fill="#E6DEFE" transform="translate(506,237)"/>
<path d="M0 0 C2.1783368 3.72052214 2.96316111 7.71157056 3.875 11.875 C5.41718161 18.74189124 7.24564581 25.42950141 9.36328125 32.14453125 C9.98942628 34.95258042 9.99612706 36.34580339 9 39 C6.85251345 35.77877017 5.75923964 32.6544269 4.625 29 C4.30172729 27.96649414 4.30172729 27.96649414 3.97192383 26.91210938 C1.39969088 18.4067944 -0.30447272 9.71444189 -2 1 C-1.34 0.67 -0.68 0.34 0 0 Z " fill="#EFD0FE" transform="translate(5,302)"/>
<path d="M0 0 C0.33 0 0.66 0 1 0 C0.21152063 8.73777302 -0.92489551 17.42766911 -2.0625 26.125 C-2.25078528 27.57289922 -2.4389373 29.02081577 -2.62695312 30.46875 C-3.08310102 33.97936763 -3.54104556 37.48974804 -4 41 C-4.33 41 -4.66 41 -5 41 C-6.19821714 32.05467169 -5.6113829 24.11221673 -4.0625 15.25 C-3.76956055 13.47109375 -3.76956055 13.47109375 -3.47070312 11.65625 C-2.99328048 8.76842523 -2.50290941 5.88347551 -2 3 C-1.34 3 -0.68 3 0 3 C0 2.01 0 1.02 0 0 Z " fill="#F4D8FE" transform="translate(6,201)"/>
<path d="M0 0 C0.33 0 0.66 0 1 0 C1.29493635 6.61278332 0.22764104 12.34843944 -1.375 18.75 C-1.59671875 19.68199219 -1.8184375 20.61398437 -2.046875 21.57421875 C-3.03990397 25.64563752 -4.00247111 29.29348595 -6 33 C-6.66 33 -7.32 33 -8 33 C-7.72285156 31.7625 -7.44570313 30.525 -7.16015625 29.25 C-6.33638879 25.54558668 -5.53535976 21.83691258 -4.74609375 18.125 C-4.42415039 16.61873047 -4.42415039 16.61873047 -4.09570312 15.08203125 C-3.6503476 12.99665733 -3.20771537 10.91070027 -2.76757812 8.82421875 C-2.55423828 7.83035156 -2.34089844 6.83648437 -2.12109375 5.8125 C-1.9295874 4.91144531 -1.73808105 4.01039063 -1.54077148 3.08203125 C-1 1 -1 1 0 0 Z " fill="#ECDCFE" transform="translate(502,298)"/>
<path d="M0 0 C0.495 1.485 0.495 1.485 1 3 C-0.83111328 3.23783203 -0.83111328 3.23783203 -2.69921875 3.48046875 C-11.85320337 4.75157076 -19.97068396 6.26961932 -28.43359375 10.109375 C-31.18009166 11.06249756 -32.33161736 11.03455024 -35 10 C-34.34 10 -33.68 10 -33 10 C-33 9.34 -33 8.68 -33 8 C-22.5287439 3.29043984 -11.24366702 1.85088286 0 0 Z " fill="#A59FBD" transform="translate(245,141)"/>
<path d="M0 0 C4.37198707 4.37198707 4.05283048 11.66111054 4.06347656 17.55615234 C4.00106529 22.76941583 3.81566799 27.97763886 3.625 33.1875 C3.56664106 35.01624229 3.50934075 36.84501869 3.453125 38.67382812 C3.31428665 43.11637276 3.16112593 47.55821016 3 52 C2.67 52 2.34 52 2 52 C1.97494385 51.08822998 1.9498877 50.17645996 1.92407227 49.23706055 C1.82802077 45.8020761 1.72885394 42.36720918 1.62768555 38.93237305 C1.58480139 37.45551988 1.54310173 35.97863175 1.50268555 34.50170898 C1.28984281 26.75265682 1.03351373 19.03982786 0.20507812 11.32617188 C-0.12832981 7.54437335 -0.06219497 3.793893 0 0 Z " fill="#F7EDFE" transform="translate(503,221)"/>
<path d="M0 0 C0.66 0.66 1.32 1.32 2 2 C-6.2965863 6.63882124 -13.23234298 10.13953796 -23 10 C-23.66 8.68 -24.32 7.36 -25 6 C-24.36835938 6.06960938 -23.73671875 6.13921875 -23.0859375 6.2109375 C-14.20245611 6.74855453 -7.78882973 3.82050626 0 0 Z " fill="#C797FD" transform="translate(372,477)"/>
<path d="M0 0 C1 1.33333333 2 2.66666667 3 4 C3.515625 4.5775 4.03125 5.155 4.5625 5.75 C6.20521061 8.32119922 6.80334462 10.80255079 7.4609375 13.76171875 C8.38260597 17.58864654 9.7097914 21.28419925 11 25 C8 24 8 24 6.75390625 21.8125 C6.16416016 20.4203125 6.16416016 20.4203125 5.5625 19 C5.13839844 18.00871094 4.71429687 17.01742188 4.27734375 15.99609375 C3.85582031 15.00738281 3.43429688 14.01867187 3 13 C2.58878906 12.14535156 2.17757813 11.29070312 1.75390625 10.41015625 C1.38136719 9.63542969 1.00882813 8.86070312 0.625 8.0625 C0.28726562 7.37285156 -0.05046875 6.68320312 -0.3984375 5.97265625 C-1.11936834 3.60856488 -0.79450193 2.30611923 0 0 Z " fill="#F4CFFE" transform="translate(16,343)"/>
<path d="M0 0 C0.33 0 0.66 0 1 0 C1.05534912 0.57443848 1.11069824 1.14887695 1.16772461 1.74072266 C1.4221876 4.36902619 1.67981811 6.99701018 1.9375 9.625 C2.02451172 10.52863281 2.11152344 11.43226563 2.20117188 12.36328125 C2.56437763 16.04914709 2.94785073 19.69000159 3.5625 23.34375 C3.98540233 25.91137128 4.10185919 28.2772933 4.0625 30.875 C4.05347656 31.65617187 4.04445313 32.43734375 4.03515625 33.2421875 C4.02355469 33.82226562 4.01195312 34.40234375 4 35 C-1.86025499 23.91700731 -1.02058986 12.05866179 0 0 Z " fill="#F5D5FE" transform="translate(1,266)"/>
<path d="M0 0 C1.485 0.99 1.485 0.99 3 2 C4.94530229 2.48933251 4.94530229 2.48933251 7 2.6875 C7.680625 2.77386719 8.36125 2.86023438 9.0625 2.94921875 C11.22041449 3.11595925 11.22041449 3.11595925 14 2 C14 2.99 14 3.98 14 5 C12.125 6.0625 12.125 6.0625 10 7 C9.34 6.67 8.68 6.34 8 6 C6.32459336 6.64438717 4.65816784 7.31246699 3 8 C2.01 8 1.02 8 0 8 C-0.79953138 4.71303767 -1.09658936 3.28976808 0 0 Z " fill="#9B5BF9" transform="translate(364,472)"/>
<path d="M0 0 C2.49203968 1.04800893 3.58452067 2.30877584 5.265625 4.41015625 C5.78640625 5.05082031 6.3071875 5.69148438 6.84375 6.3515625 C7.23046875 6.84527344 7.6171875 7.33898437 8.015625 7.84765625 C-0.17693518 7.65509607 -0.17693518 7.65509607 -3.546875 4.28515625 C-4.2584375 3.07859375 -4.2584375 3.07859375 -4.984375 1.84765625 C-1.984375 -0.15234375 -1.984375 -0.15234375 0 0 Z " fill="#813FF0" transform="translate(295.984375,393.15234375)"/>
<path d="M0 0 C0.33 0 0.66 0 1 0 C2.1805666 8.43261861 -2.06519021 14.85310059 -6 22 C-6.99 21.67 -7.98 21.34 -9 21 C-9 20.34 -9 19.68 -9 19 C-8.53811279 18.54197998 -8.07622559 18.08395996 -7.6003418 17.61206055 C-5.84781353 15.84669912 -5.23088245 14.53022903 -4.39453125 12.20703125 C-4.13349609 11.49482422 -3.87246094 10.78261719 -3.60351562 10.04882812 C-3.34248047 9.31083984 -3.08144531 8.57285156 -2.8125 7.8125 C-2.40354492 6.68811523 -2.40354492 6.68811523 -1.98632812 5.54101562 C-1.31673904 3.69670884 -0.65736279 1.84869988 0 0 Z " fill="#EFDFFD" transform="translate(388,300)"/>
<path d="M0 0 C0.33 0 0.66 0 1 0 C1.12867289 8.06350113 0.79681084 15.97497656 0 24 C-2 22 -2 22 -2.265625 19.27734375 C-2.23404709 12.52756519 -1.76813355 6.51999246 0 0 Z " fill="#988DB0" transform="translate(182,240)"/>
<path d="M0 0 C5.19255925 2.1154871 8.96885861 6.37352103 12 11 C12 11.66 12 12.32 12 13 C8.62801098 11.53424802 6.35012996 9.64818479 3.75 7.0625 C3.04359375 6.37285156 2.3371875 5.68320312 1.609375 4.97265625 C0 3 0 3 0 0 Z " fill="#F1E0FE" transform="translate(379,475)"/>
<path d="M0 0 C2.04159095 -0.0272616 4.08328963 -0.04651345 6.125 -0.0625 C7.26195312 -0.07410156 8.39890625 -0.08570313 9.5703125 -0.09765625 C12.8129156 -0.005327 15.81932612 0.38610094 19 1 C19 1.33 19 1.66 19 2 C12.62641289 2.96205088 6.44070471 3.10655578 0 3 C0 2.01 0 1.02 0 0 Z " fill="#FACBFE" transform="translate(248,397)"/>
<path d="M0 0 C1.98 0 3.96 0 6 0 C6 0.66 6 1.32 6 2 C7.1446875 1.505 7.1446875 1.505 8.3125 1 C11 0 11 0 14 0 C14 0.66 14 1.32 14 2 C14.66 2.33 15.32 2.66 16 3 C15.67 3.66 15.34 4.32 15 5 C4.44191344 3.07289294 4.44191344 3.07289294 0 1 C0 0.67 0 0.34 0 0 Z " fill="#E1B7FC" transform="translate(163,490)"/>
<path d="M0 0 C-0.5 1.9375 -0.5 1.9375 -2 4 C-8.65771812 5.5033557 -8.65771812 5.5033557 -12.5 4.0625 C-12.995 3.711875 -13.49 3.36125 -14 3 C-14 2.67 -14 2.34 -14 2 C-4.58997722 -0.29612756 -4.58997722 -0.29612756 0 0 Z " fill="#9C63F4" transform="translate(291,395)"/>
<path d="M0 0 C-2.24151882 2.24151882 -4.0067112 2.96301325 -6.9375 4.125 C-7.81277344 4.47820312 -8.68804687 4.83140625 -9.58984375 5.1953125 C-12 6 -12 6 -15 6 C-15 5.34 -15 4.68 -15 4 C-13.25705322 3.13153169 -11.50531337 2.28069373 -9.75 1.4375 C-8.77546875 0.96183594 -7.8009375 0.48617188 -6.796875 -0.00390625 C-3.90143703 -1.03510273 -2.80033839 -1.11346788 0 0 Z " fill="#E5BBFE" transform="translate(359,486)"/>
<path d="M0 0 C0.66 0.66 1.32 1.32 2 2 C0.61518672 2.87191947 -0.78345246 3.72190384 -2.1875 4.5625 C-2.96480469 5.03816406 -3.74210937 5.51382812 -4.54296875 6.00390625 C-7.48360967 7.19605797 -9.00446363 6.88855164 -12 6 C-8.37464179 2.82781157 -4.48849722 1.57097403 0 0 Z " fill="#BA84FD" transform="translate(372,477)"/>
<path d="M0 0 C4.29238623 1.65091778 6.8793915 4.73754566 10 8 C9.67 8.99 9.34 9.98 9 11 C7.49403892 9.54782324 5.99537896 8.08807139 4.5 6.625 C3.6646875 5.81289063 2.829375 5.00078125 1.96875 4.1640625 C0 2 0 2 0 0 Z " fill="#CEADFE" transform="translate(306,401)"/>
<path d="M0 0 C0.33 0 0.66 0 1 0 C1.66 4.62 2.32 9.24 3 14 C2.01 14.66 1.02 15.32 0 16 C-0.1958009 14.08416353 -0.38132214 12.16727461 -0.5625 10.25 C-0.66691406 9.18265625 -0.77132813 8.1153125 -0.87890625 7.015625 C-0.98560074 4.35858796 -0.81930395 2.50039428 0 0 Z " fill="#E4E0FE" transform="translate(502,209)"/>
<path d="M0 0 C7.26 0 14.52 0 22 0 C21.67 0.99 21.34 1.98 21 3 C20.01 2.67 19.02 2.34 18 2 C16.2505677 1.95542848 14.49956322 1.96090362 12.75 2 C8.36423283 2.04659514 4.3127653 1.76671383 0 1 C0 0.67 0 0.34 0 0 Z " fill="#E1DAFD" transform="translate(240,3)"/>
<path d="M0 0 C3 2 3 2 4 5 C5.40105576 6.42857119 5.40105576 6.42857119 7.0625 7.6875 C8.031875 8.450625 9.00125 9.21375 10 10 C9.67 10.99 9.34 11.98 9 13 C8.443125 12.278125 7.88625 11.55625 7.3125 10.8125 C5.0365555 7.92959334 5.0365555 7.92959334 2.25 5.375 C0 3 0 3 0 0 Z " fill="#CFB4FC" transform="translate(341,434)"/>
<path d="M0 0 C1 3 1 3 0.00390625 5.26171875 C-0.47175781 6.06222656 -0.94742188 6.86273438 -1.4375 7.6875 C-2.14712891 8.89986328 -2.14712891 8.89986328 -2.87109375 10.13671875 C-3.24363281 10.75160156 -3.61617187 11.36648437 -4 12 C-4.99 12 -5.98 12 -7 12 C-5.44298069 7.32894208 -2.91552627 3.91294315 0 0 Z " fill="#A399BC" transform="translate(195,214)"/>
<path d="M0 0 C1.46067199 0.45082469 2.91848032 0.91093537 4.375 1.375 C5.18710937 1.63023438 5.99921875 1.88546875 6.8359375 2.1484375 C9 3 9 3 11 5 C10.67 5.66 10.34 6.32 10 7 C9.01 7 8.02 7 7 7 C7 6.34 7 5.68 7 5 C5.5459375 4.5978125 5.5459375 4.5978125 4.0625 4.1875 C3.051875 3.795625 2.04125 3.40375 1 3 C0.67 2.01 0.34 1.02 0 0 Z " fill="#D3D1F3" transform="translate(355,25)"/>
<path d="M0 0 C2.49374292 2.49374292 2.62814292 3.50454345 3 7 C2.78729362 10.01840479 2.42419109 13.00455828 2 16 C1.67 16 1.34 16 1 16 C0.08342019 10.61509359 -0.11138159 5.45769811 0 0 Z " fill="#FBF7FE" transform="translate(503,221)"/>
<path d="M0 0 C0.99 0.33 1.98 0.66 3 1 C3.8125 2.875 3.8125 2.875 4 5 C3.01 6.485 3.01 6.485 2 8 C1.34 8 0.68 8 0 8 C0 5.36 0 2.72 0 0 Z " fill="#DCC4FE" transform="translate(247,333)"/>
<path d="M0 0 C0.33 0.99 0.66 1.98 1 3 C1.66 3 2.32 3 3 3 C3 6.63 3 10.26 3 14 C1.18751015 10.3750203 0.68111085 8.62740416 0.375 4.75 C0.30023438 3.85796875 0.22546875 2.9659375 0.1484375 2.046875 C0.09945312 1.37140625 0.05046875 0.6959375 0 0 Z " fill="#FCDFFE" transform="translate(112,279)"/>
<path d="M0 0 C0.33 0.66 0.66 1.32 1 2 C0.00390625 4.1640625 0.00390625 4.1640625 -1.4375 6.625 C-1.91058594 7.44226563 -2.38367188 8.25953125 -2.87109375 9.1015625 C-3.24363281 9.72804687 -3.61617187 10.35453125 -4 11 C-4.33 11 -4.66 11 -5 11 C-5.39169887 8.33644766 -5.40564529 6.60775627 -3.88671875 4.33203125 C-2.63610683 2.8489112 -1.32135486 1.42045648 0 0 Z " fill="#A299BD" transform="translate(153,203)"/>
<path d="M0 0 C1.13643966 3.40931897 0.86747764 4.00335456 -0.4375 7.1875 C-0.86869141 8.26064453 -0.86869141 8.26064453 -1.30859375 9.35546875 C-1.53675781 9.89816406 -1.76492188 10.44085938 -2 11 C-2.33 11 -2.66 11 -3 11 C-3.125 4.25 -3.125 4.25 -2 2 C-1.34 2 -0.68 2 0 2 C0 1.34 0 0.68 0 0 Z " fill="#F6DDFE" transform="translate(15,171)"/>
<path d="M0 0 C0.33 0 0.66 0 1 0 C1.36923077 7.50769231 1.36923077 7.50769231 -0.5 10 C-0.995 10.33 -1.49 10.66 -2 11 C-2.28571429 3.57142857 -2.28571429 3.57142857 0 0 Z " fill="#F7EDFE" transform="translate(502,298)"/>
<path d="M0 0 C0.33 0 0.66 0 1 0 C1.08090971 1.62418745 1.13914995 3.24951745 1.1875 4.875 C1.22230469 5.77992188 1.25710937 6.68484375 1.29296875 7.6171875 C1.19628906 8.40351563 1.09960938 9.18984375 1 10 C0.01 10.66 -0.98 11.32 -2 12 C-1 3.42857143 -1 3.42857143 0 0 Z " fill="#F8DCFE" transform="translate(114,219)"/>
<path d="M0 0 C1.32 0 2.64 0 4 0 C4 1.65 4 3.3 4 5 C3.01 5.33 2.02 5.66 1 6 C-0.0625 4.125 -0.0625 4.125 -1 2 C-0.67 1.34 -0.34 0.68 0 0 Z " fill="#DDADFB" transform="translate(79,434)"/>
<path d="M0 0 C2.0625 0.4375 2.0625 0.4375 4 1 C3.34 2.32 2.68 3.64 2 5 C0.68 4.34 -0.64 3.68 -2 3 C-1 1 -1 1 0 0 Z " fill="#DAB1F8" transform="translate(46,394)"/>
<path d="M0 0 C2.56616632 3.84924948 2.55097676 6.4349304 3 11 C2.01 10.67 1.02 10.34 0 10 C0 6.7 0 3.4 0 0 Z " fill="#FADAFE" transform="translate(7,312)"/>
<path d="M0 0 C1.23593891 3.70781672 0.5678132 4.67510253 -0.9375 8.1875 C-1.31777344 9.08855469 -1.69804687 9.98960937 -2.08984375 10.91796875 C-2.54037109 11.94857422 -2.54037109 11.94857422 -3 13 C-4.32757546 9.01727361 -3.3296542 6.9189808 -2 3 C-1.34 2.01 -0.68 1.02 0 0 Z " fill="#F8E2FE" transform="translate(20,157)"/>
<path d="M0 0 C0.99 0.99 1.98 1.98 3 3 C2.6875 5.6875 2.6875 5.6875 2 8 C1.01 8.33 0.02 8.66 -1 9 C-0.67 6.03 -0.34 3.06 0 0 Z " fill="#D7D5F9" transform="translate(469,127)"/>
<path d="M0 0 C2 1.375 2 1.375 4 3 C4 3.66 4 4.32 4 5 C2.125 5.625 2.125 5.625 0 6 C-0.66 5.34 -1.32 4.68 -2 4 C-1.34 2.68 -0.68 1.36 0 0 Z " fill="#884AEF" transform="translate(373,470)"/>
<path d="M0 0 C0.99 0 1.98 0 3 0 C3.66 1.65 4.32 3.3 5 5 C3.35 4.67 1.7 4.34 0 4 C0 2.68 0 1.36 0 0 Z " fill="#DBB3F7" transform="translate(86,441)"/>
<path d="M0 0 C1.65 0 3.3 0 5 0 C4.67 0.99 4.34 1.98 4 3 C0.7 3 -2.6 3 -6 3 C-6 2.67 -6 2.34 -6 2 C-4.02 2 -2.04 2 0 2 C0 1.34 0 0.68 0 0 Z " fill="#9791AC" transform="translate(264,141)"/>
<path d="M0 0 C3.67230705 3.07999946 4.56802365 5.2482602 5 10 C2 9 2 9 0.8125 6.6875 C0 4 0 4 0 0 Z " fill="#ECEBFD" transform="translate(458,106)"/>
<path d="M0 0 C0.66 0 1.32 0 2 0 C2.125 2.875 2.125 2.875 2 6 C1.34 6.66 0.68 7.32 0 8 C-0.38063221 5.6739143 -0.71269945 3.33944736 -1 1 C-0.67 0.67 -0.34 0.34 0 0 Z " fill="#E8D2FE" transform="translate(517,460)"/>
<path d="M0 0 C1.31223496 3.93670488 0.24296256 6.12488144 -1 10 C-1.33 10 -1.66 10 -2 10 C-2 7.03 -2 4.06 -2 1 C-1.34 0.67 -0.68 0.34 0 0 Z " fill="#FAE0FE" transform="translate(9,190)"/>
<path d="M0 0 C0.99 0.33 1.98 0.66 3 1 C1.68 3.31 0.36 5.62 -1 8 C-1.66 6.68 -2.32 5.36 -3 4 C-2.01 2.68 -1.02 1.36 0 0 Z " fill="#E5D5FE" transform="translate(131,179)"/>
<path d="M0 0 C0.33 0 0.66 0 1 0 C1 1.65 1 3.3 1 5 C-0.65 5.33 -2.3 5.66 -4 6 C-2.84826645 3.53199953 -1.95216435 1.95216435 0 0 Z " fill="#9E8FB4" transform="translate(173,174)"/>
<path d="M0 0 C1.2065625 0.0309375 1.2065625 0.0309375 2.4375 0.0625 C1.7775 1.3825 1.1175 2.7025 0.4375 4.0625 C-0.5525 4.0625 -1.5425 4.0625 -2.5625 4.0625 C-2.8925 3.0725 -3.2225 2.0825 -3.5625 1.0625 C-2.5625 0.0625 -2.5625 0.0625 0 0 Z " fill="#8C48F8" transform="translate(288.5625,394.9375)"/>
<path d="M0 0 C0.33 0 0.66 0 1 0 C1 2.64 1 5.28 1 8 C0.67 7.34 0.34 6.68 0 6 C-0.66 6 -1.32 6 -2 6 C-1.125 1.125 -1.125 1.125 0 0 Z " fill="#FEF9FE" transform="translate(246,333)"/>
<path d="M0 0 C2 4 2 4 1.125 6.75 C0.75375 7.4925 0.3825 8.235 0 9 C-0.66 9 -1.32 9 -2 9 C-1.34 6.03 -0.68 3.06 0 0 Z " fill="#F8F0FE" transform="translate(496,322)"/>
<path d="M0 0 C0.66 1.32 1.32 2.64 2 4 C1.34 4 0.68 4 0 4 C-0.33 4.99 -0.66 5.98 -1 7 C-1.99 6.67 -2.98 6.34 -4 6 C-2.68 4.02 -1.36 2.04 0 0 Z " fill="#9D95B3" transform="translate(156,195)"/>
<path d="M0 0 C-2.3125 1.5625 -2.3125 1.5625 -5 3 C-5.99 2.67 -6.98 2.34 -8 2 C-6.14210462 -1.71579076 -3.44525918 -1.06921837 0 0 Z " fill="#A8A2C1" transform="translate(209,153)"/>
</svg>
